<svg width="600" height="520" viewBox="0 0 600 520" fill="none" xmlns="http://www.w3.org/2000/svg">
<rect width="308.335" height="306.934" rx="32" transform="matrix(0.264922 0.96427 -0.964098 0.265546 308.434 124.176)" fill="#F2F6FF"/>
<rect width="368.518" height="368.518" rx="32" transform="matrix(0.279087 -0.960266 0.960554 0.278093 139.707 395.566)" fill="#E5EEFF"/>
<ellipse cx="235.386" cy="442.75" rx="148.386" ry="21.5564" fill="#769EEB"/>
<ellipse cx="417.333" cy="441.646" rx="62.1809" ry="11.0109" fill="#769EEB"/>
<path d="M223.189 157.776C223.189 157.776 247.093 162.338 236.027 174.396" stroke="black" stroke-width="2.70885"/>
<path d="M139.526 151.233C139.526 151.233 130.279 150.075 114.551 132.959" stroke="black" stroke-width="2.70885"/>
<circle cx="114.576" cy="132.532" r="4.96851" transform="rotate(3.08897 114.576 132.532)" fill="black"/>
<path d="M150.668 79.9966L167.975 82.0259C168.04 81.5344 168.119 80.924 168.208 80.2252C168.449 78.3302 168.762 75.8002 169.073 73.2676C169.384 70.7354 169.692 68.2025 169.922 66.3026C169.955 66.0321 169.986 65.7745 170.016 65.5316C169.348 65.8858 168.494 66.3768 167.424 67.0545C164.124 69.1443 158.814 72.9835 150.668 79.9966ZM149.01 82.5902C149.684 88.554 149.253 96.3481 148.192 104.841C147.016 114.253 145.049 124.642 142.86 134.573C138.542 154.166 133.336 172.074 131.566 177.313C137.11 178.47 156.462 182.054 174.998 184.582C184.44 185.87 193.63 186.877 200.662 187.156C204.186 187.295 207.111 187.249 209.235 186.979C210.301 186.844 211.103 186.659 211.656 186.446C212.173 186.247 212.313 186.085 212.331 186.064C212.333 186.061 212.333 186.061 212.332 186.064C224.438 163.548 230.517 136.696 232.332 114.966C233.239 104.103 233.075 94.5756 232.089 87.5556C231.595 84.0396 230.903 81.2105 230.067 79.1739C229.236 77.1487 228.38 76.191 227.705 75.8725C221.514 74.931 207.48 72.1356 195.006 69.5788C188.721 68.2907 182.818 67.06 178.486 66.1515C176.32 65.6972 174.547 65.3234 173.315 65.0631C173.159 65.0301 173.011 64.999 172.873 64.9697C172.816 65.439 172.748 66.0023 172.671 66.6358C172.441 68.5366 172.132 71.0709 171.821 73.6049C171.51 76.1384 171.196 78.6734 170.954 80.5747C170.834 81.5247 170.73 82.3202 170.654 82.8791C170.616 83.1573 170.584 83.3841 170.559 83.5442C170.547 83.6216 170.535 83.6979 170.523 83.7609C170.518 83.787 170.507 83.8408 170.492 83.8997C170.486 83.9196 170.465 83.9992 170.426 84.0935C170.411 84.129 170.356 84.2579 170.248 84.3987C170.186 84.4745 170.005 84.6449 169.882 84.7315C169.703 84.8237 169.286 84.9171 168.988 84.9194L168.987 84.9326L149.01 82.5902Z" fill="white" stroke="black" stroke-width="2.76904"/>
<path d="M179.715 145.691C178.346 156.373 194.263 162.814 197.27 149.396C197.341 149.077 197.136 148.753 196.816 148.685L180.415 145.205C180.084 145.135 179.758 145.355 179.715 145.691Z" fill="black" stroke="black" stroke-width="1.50491" stroke-linecap="round"/>
<path fill-rule="evenodd" clip-rule="evenodd" d="M171.862 139.26C174.138 139.615 175.798 137.136 176.265 134.139C176.732 131.141 175.904 128.275 173.628 127.92C171.353 127.566 169.692 130.044 169.225 133.042C168.758 136.039 169.586 138.906 171.862 139.26Z" fill="black"/>
<path fill-rule="evenodd" clip-rule="evenodd" d="M204.272 146.106C206.548 146.46 208.208 143.982 208.675 140.984C209.142 137.987 208.314 135.121 206.039 134.766C203.763 134.412 202.102 136.89 201.635 139.888C201.168 142.885 201.996 145.751 204.272 146.106Z" fill="black"/>
<path d="M299.374 420.347L292.483 396.234L259.669 378.654L226.854 396.233L221.832 413.812L304.203 437.251L321.782 437.251C312.113 437.252 302.029 429.646 299.374 420.347Z" fill="#51D4D8"/>
<path d="M304.206 437.252L197.559 437.252C207.227 437.252 217.312 429.646 219.966 420.346L221.835 413.813L279.929 413.813L281.798 420.346C284.452 429.646 294.537 437.252 304.206 437.252Z" fill="#A0F5F8"/>
<path d="M370.129 317.127L370.129 396.233L387.708 396.233C397.376 396.233 405.287 388.323 405.287 378.654L405.287 343.496L370.129 317.127Z" fill="#51D4D8"/>
<path d="M114.055 343.496L114.055 378.654C114.055 388.323 121.965 396.233 131.634 396.233L370.126 396.233C379.794 396.233 387.705 388.323 387.705 378.654L387.705 317.127L114.055 343.496Z" fill="#A0F5F8"/>
<path d="M387.705 167.703L131.634 167.703C121.965 167.703 114.055 175.614 114.055 185.283L114.055 343.496L405.284 343.496L405.284 185.283C405.284 175.614 397.374 167.703 387.705 167.703Z" fill="#493A91"/>
<path d="M387.698 325.917L370.119 325.917L346.68 255.6L370.119 185.283L387.698 185.283L387.698 325.917Z" fill="#BAE2FF"/>
<path d="M387.704 185.283L131.633 185.283L131.633 325.917L387.704 325.917L387.704 185.283Z" fill="#FFBF80"/>
<path d="M359.286 441.647L160.055 441.647C157.627 441.647 155.66 439.68 155.66 437.252C155.66 434.824 157.627 432.857 160.055 432.857L359.286 432.857C361.714 432.857 363.681 434.824 363.681 437.252C363.681 439.679 361.714 441.647 359.286 441.647Z" fill="#51D4D8"/>
<path d="M137.565 362.487C140.925 362.487 143.649 359.763 143.649 356.403C143.649 353.042 140.925 350.318 137.565 350.318C134.205 350.318 131.48 353.042 131.48 356.403C131.48 359.763 134.205 362.487 137.565 362.487Z" fill="#FA952F"/>
<path d="M155.659 363.042C159.019 363.042 161.743 360.318 161.743 356.957C161.743 353.597 159.019 350.873 155.659 350.873C152.298 350.873 149.574 353.597 149.574 356.957C149.574 360.318 152.298 363.042 155.659 363.042Z" fill="#FFE299"/>
<path d="M173.752 363.042C177.113 363.042 179.837 360.318 179.837 356.957C179.837 353.597 177.113 350.873 173.752 350.873C170.392 350.873 167.668 353.597 167.668 356.957C167.668 360.318 170.392 363.042 173.752 363.042Z" fill="#0FC0C5"/>
<path d="M164.887 210.906C164.887 209.09 166.359 207.617 168.176 207.617H350.263C352.08 207.617 353.553 209.09 353.553 210.906V326.082H164.887V210.906Z" fill="#7DA9FF"/>
<path d="M222.102 210.899C222.102 209.086 223.571 207.617 225.383 207.617H271.759C273.571 207.617 275.041 209.086 275.041 210.899V220.44C275.041 221.991 276.127 223.331 277.645 223.651L293.975 227.095C297.553 227.849 297.402 233.006 293.787 233.551L275.284 236.338C275.122 236.362 274.958 236.374 274.795 236.374H225.383C223.571 236.374 222.102 234.905 222.102 233.093V210.899Z" fill="#B3CCFF"/>
<path d="M193.34 210.899C193.34 209.086 194.809 207.617 196.622 207.617H242.997C244.81 207.617 246.279 209.086 246.279 210.899V220.44C246.279 221.991 247.365 223.331 248.883 223.651L265.213 227.095C268.791 227.849 268.64 233.006 265.025 233.551L246.522 236.338C246.36 236.362 246.197 236.374 246.033 236.374H196.622C194.809 236.374 193.34 234.905 193.34 233.093V210.899Z" fill="#D9E5FF"/>
<path d="M164.887 210.899C164.887 209.086 166.356 207.617 168.168 207.617H214.544C216.356 207.617 217.826 209.086 217.826 210.899V220.44C217.826 221.991 218.912 223.331 220.43 223.651L236.76 227.095C240.338 227.849 240.187 233.006 236.572 233.551L218.069 236.338C217.907 236.362 217.744 236.374 217.58 236.374H168.168C166.356 236.374 164.887 234.905 164.887 233.093V210.899Z" fill="#FAFCFF"/>
<path d="M164.887 225.531C164.887 223.715 166.359 222.242 168.176 222.242H353.553V326.082H164.887V225.531Z" fill="#FAFCFF"/>
<path d="M179 298.409L179 261.624C179 258.518 181.518 256 184.624 256L208.648 256C210.127 256 211.547 256.583 212.6 257.622L217.079 262.046C218.149 263.103 218.751 264.544 218.751 266.047L218.751 298.409C218.751 301.515 216.233 304.033 213.128 304.033L184.624 304.033C181.518 304.033 179 301.515 179 298.409Z" fill="#E4DFFC"/>
<path d="M199.207 258.984L199.207 256.107C199.86 256.285 207.505 262.467 207.488 262.733L202.956 262.733C200.886 262.733 199.207 261.054 199.207 258.984Z" fill="#AEA0F7"/>
<path d="M185.82 279.539C185.82 278.975 186.278 278.518 186.842 278.518L211.011 278.518C211.575 278.518 212.033 278.975 212.033 279.539V279.539C212.033 280.103 211.575 280.56 211.011 280.56L186.842 280.56C186.278 280.56 185.82 280.103 185.82 279.539V279.539Z" fill="#AEA0F7"/>
<path d="M185.832 268.768C185.832 268.203 186.289 267.746 186.853 267.746L211.023 267.746C211.587 267.746 212.045 268.203 212.045 268.768V268.768C212.045 269.332 211.587 269.789 211.023 269.789L186.853 269.789C186.289 269.789 185.832 269.332 185.832 268.768V268.768Z" fill="#AEA0F7"/>
<path d="M185.82 284.928C185.82 284.364 186.278 283.906 186.842 283.906L211.011 283.906C211.575 283.906 212.033 284.364 212.033 284.928V284.928C212.033 285.492 211.575 285.949 211.011 285.949L186.842 285.949C186.278 285.949 185.82 285.492 185.82 284.928V284.928Z" fill="#AEA0F7"/>
<path d="M185.832 274.154C185.832 273.59 186.289 273.133 186.853 273.133L211.023 273.133C211.587 273.133 212.045 273.59 212.045 274.154V274.154C212.045 274.718 211.587 275.176 211.023 275.176L186.853 275.176C186.289 275.176 185.832 274.718 185.832 274.154V274.154Z" fill="#AEA0F7"/>
<path d="M185.82 290.312C185.82 289.748 186.278 289.291 186.842 289.291L210.995 289.291C211.559 289.291 212.016 289.748 212.016 290.312V290.312C212.016 290.877 211.559 291.334 210.995 291.334L186.842 291.334C186.278 291.334 185.82 290.877 185.82 290.312V290.312Z" fill="#AEA0F7"/>
<path d="M185.816 295.697C185.816 295.133 186.274 294.676 186.838 294.676L203.813 294.676C204.377 294.676 204.835 295.133 204.835 295.697V295.697C204.835 296.261 204.377 296.719 203.813 296.719L186.838 296.719C186.274 296.719 185.816 296.261 185.816 295.697V295.697Z" fill="#AEA0F7"/>
<path d="M291.625 298.409L291.625 261.624C291.625 258.518 294.143 256 297.249 256L321.273 256C322.752 256 324.172 256.583 325.225 257.622L329.704 262.046C330.774 263.103 331.376 264.544 331.376 266.047L331.376 298.409C331.376 301.515 328.858 304.033 325.753 304.033L297.249 304.033C294.143 304.033 291.625 301.515 291.625 298.409Z" fill="#E4DFFC"/>
<path d="M322.298 259.867L322.527 257C323.164 257.23 330.291 264.002 330.254 264.265L325.736 263.903C323.672 263.738 322.133 261.931 322.298 259.867Z" fill="#AEA0F7"/>
<path d="M297.973 279.539C297.973 278.975 298.43 278.518 298.994 278.518L323.164 278.518C323.728 278.518 324.185 278.975 324.185 279.539V279.539C324.185 280.103 323.728 280.56 323.164 280.56L298.994 280.56C298.43 280.56 297.973 280.103 297.973 279.539V279.539Z" fill="#AEA0F7"/>
<path d="M297.984 268.768C297.984 268.203 298.442 267.746 299.006 267.746L323.175 267.746C323.74 267.746 324.197 268.203 324.197 268.768V268.768C324.197 269.332 323.74 269.789 323.175 269.789L299.006 269.789C298.442 269.789 297.984 269.332 297.984 268.768V268.768Z" fill="#AEA0F7"/>
<path d="M297.973 284.928C297.973 284.364 298.43 283.906 298.994 283.906L323.164 283.906C323.728 283.906 324.185 284.364 324.185 284.928V284.928C324.185 285.492 323.728 285.949 323.164 285.949L298.994 285.949C298.43 285.949 297.973 285.492 297.973 284.928V284.928Z" fill="#AEA0F7"/>
<path d="M297.984 274.154C297.984 273.59 298.442 273.133 299.006 273.133L323.175 273.133C323.74 273.133 324.197 273.59 324.197 274.154V274.154C324.197 274.718 323.74 275.176 323.175 275.176L299.006 275.176C298.442 275.176 297.984 274.718 297.984 274.154V274.154Z" fill="#AEA0F7"/>
<path d="M297.973 290.312C297.973 289.748 298.43 289.291 298.994 289.291L323.147 289.291C323.711 289.291 324.169 289.748 324.169 290.312V290.312C324.169 290.877 323.711 291.334 323.147 291.334L298.994 291.334C298.43 291.334 297.973 290.877 297.973 290.312V290.312Z" fill="#AEA0F7"/>
<path d="M297.969 295.697C297.969 295.133 298.426 294.676 298.99 294.676L315.965 294.676C316.53 294.676 316.987 295.133 316.987 295.697V295.697C316.987 296.261 316.53 296.719 315.965 296.719L298.99 296.719C298.426 296.719 297.969 296.261 297.969 295.697V295.697Z" fill="#AEA0F7"/>
<path d="M232 298.409L232 261.624C232 258.518 234.518 256 237.624 256L263.046 256C264.486 256 265.871 256.552 266.915 257.543L271.653 262.034C272.773 263.096 273.407 264.572 273.407 266.115L273.407 298.409C273.407 301.515 270.89 304.033 267.784 304.033L237.624 304.033C234.518 304.033 232 301.515 232 298.409Z" fill="#E4DFFC"/>
<path d="M253.863 258.984L253.863 256.107C254.516 256.285 262.161 262.467 262.145 262.733L257.612 262.733C255.542 262.733 253.863 261.054 253.863 258.984Z" fill="#AEA0F7"/>
<path d="M239.457 279.539C239.457 278.975 239.914 278.518 240.478 278.518L264.648 278.518C265.212 278.518 265.67 278.975 265.67 279.539V279.539C265.67 280.103 265.212 280.56 264.648 280.56L240.478 280.56C239.914 280.56 239.457 280.103 239.457 279.539V279.539Z" fill="#AEA0F7"/>
<path d="M239.469 268.768C239.469 268.203 239.926 267.746 240.49 267.746L264.66 267.746C265.224 267.746 265.681 268.203 265.681 268.768V268.768C265.681 269.332 265.224 269.789 264.66 269.789L240.49 269.789C239.926 269.789 239.469 269.332 239.469 268.768V268.768Z" fill="#AEA0F7"/>
<path d="M239.457 284.928C239.457 284.364 239.914 283.906 240.478 283.906L264.648 283.906C265.212 283.906 265.67 284.364 265.67 284.928V284.928C265.67 285.492 265.212 285.949 264.648 285.949L240.478 285.949C239.914 285.949 239.457 285.492 239.457 284.928V284.928Z" fill="#AEA0F7"/>
<path d="M239.469 274.154C239.469 273.59 239.926 273.133 240.49 273.133L264.66 273.133C265.224 273.133 265.681 273.59 265.681 274.154V274.154C265.681 274.718 265.224 275.176 264.66 275.176L240.49 275.176C239.926 275.176 239.469 274.718 239.469 274.154V274.154Z" fill="#AEA0F7"/>
<path d="M239.457 290.312C239.457 289.748 239.914 289.291 240.478 289.291L264.632 289.291C265.196 289.291 265.653 289.748 265.653 290.312V290.312C265.653 290.877 265.196 291.334 264.632 291.334L240.478 291.334C239.914 291.334 239.457 290.877 239.457 290.312V290.312Z" fill="#AEA0F7"/>
<path d="M239.453 295.697C239.453 295.133 239.91 294.676 240.475 294.676L257.45 294.676C258.014 294.676 258.471 295.133 258.471 295.697V295.697C258.471 296.261 258.014 296.719 257.45 296.719L240.475 296.719C239.91 296.719 239.453 296.261 239.453 295.697V295.697Z" fill="#AEA0F7"/>
<path d="M228.968 102.327L214.306 80.0541L238.379 91.5236L228.968 102.327Z" fill="#FFB700"/>
<path d="M193.978 69.9995L205.031 57.3105L241.095 88.7259L235.568 95.0704L214.773 82.535L193.978 69.9995Z" fill="#FFB700"/>
<rect x="200.797" y="46" width="69.0845" height="6.63104" rx="1.00473" transform="rotate(41.0597 200.797 46)" fill="#0048D9"/>
<path d="M246.712 88.7727C246.712 88.7727 240.868 95.1267 238.476 100.189C236.26 104.877 234.838 112.543 234.838 112.543M234.838 112.543L235.632 118.88M234.838 112.543L229.294 115.713M234.838 112.543L232.067 118.089" stroke="#0048D9" stroke-width="1.5071" stroke-linecap="round" stroke-linejoin="round"/>
<path d="M480.322 403.472C482.401 412.914 502.162 424.79 502.16 405.552" stroke="black" stroke-width="2.70885"/>
<ellipse cx="502.566" cy="402.317" rx="4.96851" ry="4.96851" transform="rotate(153.973 502.566 402.317)" fill="black"/>
<path d="M400.601 403.32C400.601 403.32 391.384 401.941 376.07 384.453" stroke="black" stroke-width="2.70885"/>
<circle cx="378.84" cy="388.027" r="4.96851" transform="rotate(4.46109 378.84 388.027)" fill="black"/>
<path d="M489.88 342.103L472.608 339.151C472.685 338.656 472.783 338.038 472.897 337.329C473.2 335.442 473.613 332.927 474.03 330.409C474.446 327.892 474.865 325.375 475.18 323.488C475.228 323.198 475.274 322.923 475.317 322.665C475.864 323.197 476.56 323.922 477.417 324.899C479.999 327.842 484.023 333.041 489.88 342.103ZM490.72 344.995C488.385 350.526 486.595 358.136 485.214 366.601C483.687 375.961 482.643 386.482 481.942 396.626C480.554 416.683 480.499 435.366 480.721 440.847C475.12 440.399 455.5 438.375 436.966 435.565C427.544 434.137 418.443 432.511 411.616 430.793C408.195 429.933 405.4 429.062 403.436 428.203C402.451 427.772 401.731 427.368 401.258 427.006C400.799 426.655 400.715 426.453 400.707 426.432C400.706 426.43 400.706 426.429 400.706 426.431C395.442 401.408 397.186 373.929 401.577 352.566C403.771 341.887 406.617 332.79 409.544 326.331C411.011 323.096 412.474 320.575 413.853 318.854C415.225 317.141 416.324 316.457 417.074 316.342C423.276 317.185 437.531 318.463 450.223 319.529C456.616 320.066 462.626 320.551 467.038 320.901C469.245 321.077 471.051 321.218 472.307 321.316C472.478 321.33 472.639 321.342 472.79 321.354C472.711 321.827 472.615 322.398 472.508 323.042C472.193 324.93 471.774 327.449 471.357 329.967C470.941 332.486 470.527 335.006 470.222 336.898C470.07 337.844 469.945 338.636 469.861 339.194C469.818 339.471 469.785 339.698 469.764 339.858C469.754 339.936 469.744 340.012 469.738 340.075C469.735 340.101 469.73 340.155 469.729 340.215L469.729 340.216C469.728 340.238 469.726 340.317 469.737 340.415C469.742 340.453 469.757 340.589 469.82 340.751C469.857 340.839 469.98 341.049 470.071 341.164C470.214 341.3 470.58 341.503 470.858 341.587L470.856 341.6L490.72 344.995Z" fill="white" stroke="black" stroke-width="2.70885"/>
<path d="M439.096 382.828C437.847 392.629 444.779 401.588 454.58 402.838C464.382 404.087 473.341 397.155 474.59 387.353C475.84 377.552 468.907 368.593 459.106 367.344C449.305 366.094 440.346 373.026 439.096 382.828Z" fill="#B3CCFF" stroke="black" stroke-width="3.16154"/>
<path d="M392.393 376.873C391.143 386.674 398.076 395.633 407.877 396.882C417.679 398.132 426.637 391.2 427.887 381.398C429.137 371.597 422.204 362.638 412.403 361.389C402.602 360.139 393.643 367.071 392.393 376.873Z" fill="#B3CCFF" stroke="black" stroke-width="3.16154"/>
<path d="M438.133 384.197L428.527 382.972" stroke="black" stroke-width="3.16154"/>
<path fill-rule="evenodd" clip-rule="evenodd" d="M448.668 387.755C446.385 387.453 445.491 384.606 445.888 381.599C446.286 378.591 447.889 376.075 450.172 376.377C452.456 376.679 453.349 379.525 452.952 382.533C452.554 385.54 450.951 388.057 448.668 387.755Z" fill="black"/>
<path fill-rule="evenodd" clip-rule="evenodd" d="M415.777 383.927C413.494 383.625 412.6 380.778 412.998 377.771C413.395 374.763 414.998 372.247 417.282 372.549C419.565 372.851 420.459 375.697 420.061 378.705C419.664 381.712 418.061 384.228 415.777 383.927Z" fill="black"/>
<ellipse cx="431.738" cy="398.649" rx="5.15149" ry="7.23852" transform="rotate(5.99905 431.738 398.649)" fill="black"/>
<path d="M74.3768 461.167C73.6026 460.404 73.6026 459.165 74.3768 458.401C75.151 457.637 76.4062 457.637 77.1804 458.401L81.3507 462.516C82.1249 463.28 82.1249 464.518 81.3507 465.282C80.5765 466.046 79.3213 466.046 78.5471 465.282L74.3768 461.167Z" fill="#FFB700"/>
<path d="M84.1407 470.801C83.3665 470.037 83.3665 468.798 84.1407 468.035C84.9149 467.271 86.1702 467.271 86.9444 468.035L91.1147 472.149C91.8889 472.913 91.8889 474.152 91.1147 474.916C90.3404 475.68 89.0852 475.68 88.311 474.916L84.1407 470.801Z" fill="#FFB700"/>
<path d="M74.3768 474.916C75.151 475.68 76.4062 475.68 77.1804 474.916L81.3507 470.801C82.1249 470.037 82.1249 468.798 81.3507 468.035C80.5765 467.271 79.3213 467.271 78.5471 468.035L74.3768 472.149C73.6026 472.913 73.6026 474.152 74.3768 474.916Z" fill="#FFB700"/>
<path d="M86.9444 465.282C86.1702 466.046 84.9149 466.046 84.1407 465.282C83.3665 464.518 83.3665 463.28 84.1407 462.516L88.311 458.401C89.0852 457.637 90.3404 457.637 91.1147 458.401C91.8889 459.165 91.8889 460.404 91.1147 461.167L86.9444 465.282Z" fill="#FFB700"/>
<path fill-rule="evenodd" clip-rule="evenodd" d="M272.315 114.818C272.315 118.994 275.698 122.378 279.871 122.378C284.043 122.378 287.426 118.994 287.426 114.818C287.426 110.643 284.043 107.258 279.871 107.258C275.698 107.258 272.315 110.643 272.315 114.818ZM283.799 114.818C283.799 116.989 282.04 118.75 279.87 118.75C277.7 118.75 275.941 116.989 275.941 114.818C275.941 112.647 277.7 110.887 279.87 110.887C282.04 110.887 283.799 112.647 283.799 114.818Z" fill="white"/>
<path fill-rule="evenodd" clip-rule="evenodd" d="M426.378 82.5603C426.378 86.7358 429.76 90.1207 433.933 90.1207C438.106 90.1207 441.488 86.7358 441.488 82.5603C441.488 78.3849 438.106 75 433.933 75C429.76 75 426.378 78.3849 426.378 82.5603ZM437.861 82.5603C437.861 84.7316 436.102 86.4917 433.933 86.4917C431.763 86.4917 430.004 84.7316 430.004 82.5603C430.004 80.3891 431.763 78.6289 433.933 78.6289C436.102 78.6289 437.861 80.3891 437.861 82.5603Z" fill="#FFB700"/>
<path fill-rule="evenodd" clip-rule="evenodd" d="M36.3583 432.111C36.3583 436.287 39.7409 439.671 43.9135 439.671C48.0862 439.671 51.4688 436.287 51.4688 432.111C51.4688 427.936 48.0862 424.551 43.9135 424.551C39.7409 424.551 36.3583 427.936 36.3583 432.111ZM47.8419 432.111C47.8419 434.282 46.0829 436.042 43.9132 436.042C41.7434 436.042 39.9845 434.282 39.9845 432.111C39.9845 429.94 41.7434 428.18 43.9132 428.18C46.0829 428.18 47.8419 429.94 47.8419 432.111Z" fill="white"/>
<path d="M479.58 171.339C478.806 170.575 478.806 169.337 479.58 168.573C480.354 167.809 481.609 167.809 482.384 168.573L486.554 172.688C487.328 173.452 487.328 174.69 486.554 175.454C485.78 176.218 484.524 176.218 483.75 175.454L479.58 171.339Z" fill="white"/>
<path d="M489.344 180.973C488.57 180.209 488.57 178.97 489.344 178.206C490.118 177.442 491.373 177.442 492.147 178.206L496.318 182.321C497.092 183.085 497.092 184.324 496.318 185.088C495.544 185.852 494.288 185.852 493.514 185.088L489.344 180.973Z" fill="white"/>
<path d="M479.58 185.088C480.354 185.852 481.609 185.852 482.384 185.088L486.554 180.973C487.328 180.209 487.328 178.97 486.554 178.206C485.78 177.442 484.524 177.442 483.75 178.206L479.58 182.321C478.806 183.085 478.806 184.324 479.58 185.088Z" fill="white"/>
<path d="M492.147 175.454C491.373 176.218 490.118 176.218 489.344 175.454C488.57 174.69 488.57 173.452 489.344 172.688L493.514 168.573C494.288 167.809 495.544 167.809 496.318 168.573C497.092 169.337 497.092 170.575 496.318 171.339L492.147 175.454Z" fill="white"/>
<path d="M516.342 283.341C515.567 282.577 515.567 281.339 516.342 280.575C517.116 279.811 518.371 279.811 519.145 280.575L523.316 284.69C524.09 285.454 524.09 286.692 523.316 287.456C522.541 288.22 521.286 288.22 520.512 287.456L516.342 283.341Z" fill="#87AFFF"/>
<path d="M526.106 292.975C525.331 292.211 525.331 290.972 526.106 290.208C526.88 289.444 528.135 289.444 528.909 290.208L533.079 294.323C533.854 295.087 533.854 296.326 533.079 297.09C532.305 297.853 531.05 297.853 530.276 297.09L526.106 292.975Z" fill="#87AFFF"/>
<path d="M516.342 297.09C517.116 297.853 518.371 297.853 519.145 297.09L523.316 292.975C524.09 292.211 524.09 290.972 523.316 290.208C522.541 289.444 521.286 289.444 520.512 290.208L516.342 294.323C515.567 295.087 515.567 296.326 516.342 297.09Z" fill="#87AFFF"/>
<path d="M528.909 287.456C528.135 288.22 526.88 288.22 526.106 287.456C525.331 286.692 525.331 285.454 526.106 284.69L530.276 280.575C531.05 279.811 532.305 279.811 533.079 280.575C533.854 281.339 533.854 282.577 533.079 283.341L528.909 287.456Z" fill="#87AFFF"/>
<path d="M18.5799 137.339C17.8057 136.575 17.8057 135.337 18.5799 134.573C19.3541 133.809 20.6094 133.809 21.3836 134.573L25.5538 138.688C26.3281 139.452 26.3281 140.69 25.5538 141.454C24.7796 142.218 23.5244 142.218 22.7502 141.454L18.5799 137.339Z" fill="#87AFFF"/>
<path d="M28.3438 146.973C27.5696 146.209 27.5696 144.97 28.3438 144.206C29.118 143.442 30.3733 143.442 31.1475 144.206L35.3178 148.321C36.092 149.085 36.092 150.324 35.3178 151.088C34.5436 151.852 33.2883 151.852 32.5141 151.088L28.3438 146.973Z" fill="#87AFFF"/>
<path d="M18.5799 151.088C19.3541 151.852 20.6094 151.852 21.3836 151.088L25.5538 146.973C26.3281 146.209 26.3281 144.97 25.5538 144.206C24.7796 143.442 23.5244 143.442 22.7502 144.206L18.5799 148.321C17.8057 149.085 17.8057 150.324 18.5799 151.088Z" fill="#87AFFF"/>
<path d="M31.1475 141.454C30.3733 142.218 29.118 142.218 28.3438 141.454C27.5696 140.69 27.5696 139.452 28.3438 138.688L32.5141 134.573C33.2883 133.809 34.5436 133.809 35.3178 134.573C36.092 135.337 36.092 136.575 35.3178 137.339L31.1475 141.454Z" fill="#87AFFF"/>
<rect x="253" y="240" width="26.5007" height="26.5007" rx="7.81484" fill="white"/>
<path d="M268.175 258.927C266.141 260.964 262.841 260.965 260.805 258.929L258.531 256.655C257.411 255.535 257.409 253.719 258.527 252.597L258.59 252.534C259.674 251.445 261.436 251.442 262.525 252.526V252.526C263.612 253.609 265.37 253.607 266.455 252.524L272.779 246.209C273.898 245.091 275.711 245.092 276.829 246.21V246.21C277.948 247.329 277.948 249.142 276.831 250.261L268.175 258.927Z" fill="#00D267"/>
<rect x="198" y="240" width="26.5007" height="26.5007" rx="7.81484" fill="white"/>
<path d="M213.175 258.927C211.141 260.964 207.841 260.965 205.805 258.929L203.531 256.655C202.411 255.535 202.409 253.719 203.527 252.597L203.59 252.534C204.674 251.445 206.436 251.442 207.525 252.526V252.526C208.612 253.609 210.37 253.607 211.455 252.524L217.779 246.209C218.898 245.091 220.711 245.092 221.829 246.21V246.21C222.948 247.329 222.948 249.142 221.831 250.261L213.175 258.927Z" fill="#00D267"/>
</svg>
